HIERARCHY
ROOT Root
{
  OFFSET 0.0 0.0 0.0
  CHANNELS 6 Xposition Yposition Zposition Zrotation Yrotation Xrotation
  JOINT Hips
  {
    OFFSET 0.0 100.0 0.0
    CHANNELS 6 Xposition Yposition Zposition Zrotation Yrotation Xrotation
    JOINT Spine1
    {
      OFFSET 5.003913 -0.037094 -0.013727
      CHANNELS 3 Zrotation Yrotation Xrotation
      JOINT Spine2
      {
        OFFSET 7.125363 -1e-06 0.0
        CHANNELS 3 Zrotation Yrotation Xrotation
        JOINT Chest
        {
          OFFSET 7.594027 1e-06 0.0
          CHANNELS 3 Zrotation Yrotation Xrotation
          JOINT Neck1
          {
            OFFSET 26.313086 -0.460272 -0.181672
            CHANNELS 3 Zrotation Yrotation Xrotation
            JOINT Neck2
            {
              OFFSET 8.045911 0.0 0.0
              CHANNELS 3 Zrotation Yrotation Xrotation
              JOINT Head
              {
                OFFSET 6.432774 0.0 0.0
                CHANNELS 3 Zrotation Yrotation Xrotation
                JOINT HeadEnd
                {
                  OFFSET 16.169773 0.06451 0.00362
                  CHANNELS 3 Zrotation Yrotation Xrotation
                }
                JOINT Jaw
                {
                  OFFSET 0.108741 3.12938 0.002639
                  CHANNELS 3 Zrotation Yrotation Xrotation
                }
                JOINT LeftEye
                {
                  OFFSET 4.45173 8.166359 3.206392
                  CHANNELS 3 Zrotation Yrotation Xrotation
                }
                JOINT RightEye
                {
                  OFFSET 4.436895 8.135758 -3.222429
                  CHANNELS 3 Zrotation Yrotation Xrotation
                }
              }
            }
          }
          JOINT LeftShoulder
          {
            OFFSET 23.218927 5.195579 1.621656
            CHANNELS 3 Zrotation Yrotation Xrotation
            JOINT LeftArm
            {
              OFFSET 15.902118 2e-06 -2e-06
              CHANNELS 3 Zrotation Yrotation Xrotation
              JOINT LeftForeArm
              {
                OFFSET 28.739307 0.0 -1e-06
                CHANNELS 3 Zrotation Yrotation Xrotation
                JOINT LeftHand
                {
                  OFFSET 27.093981 -4e-06 0.0
                  CHANNELS 3 Zrotation Yrotation Xrotation
                  JOINT LeftHandThumb1
                  {
                    OFFSET 2.276781 3.380274 0.83384
                    CHANNELS 3 Zrotation Yrotation Xrotation
                    JOINT LeftHandThumb2
                    {
                      OFFSET 4.705309 -1e-06 -1e-06
                      CHANNELS 3 Zrotation Yrotation Xrotation
                      JOINT LeftHandThumb3
                      {
                        OFFSET 2.798515 0.0 3e-06
                        CHANNELS 3 Zrotation Yrotation Xrotation
                        JOINT LeftHandThumbEnd
                        {
                          OFFSET 3.180793 4e-06 -4e-06
                          CHANNELS 3 Zrotation Yrotation Xrotation
                        }
                      }
                    }
                  }
                  JOINT LeftHandIndex1
                  {
                    OFFSET 3.247786 2.352677 0.137192
                    CHANNELS 3 Zrotation Yrotation Xrotation
                    JOINT LeftHandIndex2
                    {
                      OFFSET 6.367095 1e-06 0.0
                      CHANNELS 3 Zrotation Yrotation Xrotation
                      JOINT LeftHandIndex3
                      {
                        OFFSET 3.662364 0.0 0.0
                        CHANNELS 3 Zrotation Yrotation Xrotation
                        JOINT LeftHandIndex4
                        {
                          OFFSET 2.329242 4e-06 -4e-06
                          CHANNELS 3 Zrotation Yrotation Xrotation
                          JOINT LeftHandIndexEnd
                          {
                            OFFSET 2.767823 1e-06 0.0
                            CHANNELS 3 Zrotation Yrotation Xrotation
                          }
                        }
                      }
                    }
                  }
                  JOINT LeftHandMiddle1
                  {
                    OFFSET 3.163612 0.945023 -0.406112
                    CHANNELS 3 Zrotation Yrotation Xrotation
                    JOINT LeftHandMiddle2
                    {
                      OFFSET 6.276789 3e-06 0.0
                      CHANNELS 3 Zrotation Yrotation Xrotation
                      JOINT LeftHandMiddle3
                      {
                        OFFSET 4.35652 -1e-06 4e-06
                        CHANNELS 3 Zrotation Yrotation Xrotation
                        JOINT LeftHandMiddle4
                        {
                          OFFSET 2.996877 0.0 8e-06
                          CHANNELS 3 Zrotation Yrotation Xrotation
                          JOINT LeftHandMiddleEnd
                          {
                            OFFSET 2.323256 3e-06 -4e-06
                            CHANNELS 3 Zrotation Yrotation Xrotation
                          }
                        }
                      }
                    }
                  }
                  JOINT LeftHandRing1
                  {
                    OFFSET 2.882606 -0.309162 0.107445
                    CHANNELS 3 Zrotation Yrotation Xrotation
                    JOINT LeftHandRing2
                    {
                      OFFSET 6.033198 0.0 4e-06
                      CHANNELS 3 Zrotation Yrotation Xrotation
                      JOINT LeftHandRing3
                      {
                        OFFSET 4.350578 3e-06 0.0
                        CHANNELS 3 Zrotation Yrotation Xrotation
                        JOINT LeftHandRing4
                        {
                          OFFSET 2.651321 2e-06 -7e-06
                          CHANNELS 3 Zrotation Yrotation Xrotation
                          JOINT LeftHandRingEnd
                          {
                            OFFSET 1.937663 1e-06 -4e-06
                            CHANNELS 3 Zrotation Yrotation Xrotation
                          }
                        }
                      }
                    }
                  }
                  JOINT LeftHandPinky1
                  {
                    OFFSET 2.865315 -1.525436 0.575687
                    CHANNELS 3 Zrotation Yrotation Xrotation
                    JOINT LeftHandPinky2
                    {
                      OFFSET 5.54936 1e-06 -8e-06
                      CHANNELS 3 Zrotation Yrotation Xrotation
                      JOINT LeftHandPinky3
                      {
                        OFFSET 3.070974 0.0 -4e-06
                        CHANNELS 3 Zrotation Yrotation Xrotation
                        JOINT LeftHandPinky4
                        {
                          OFFSET 1.549672 1e-06 0.0
                          CHANNELS 3 Zrotation Yrotation Xrotation
                          JOINT LeftHandPinkyEnd
                          {
                            OFFSET 1.952123 0.0 0.0
                            CHANNELS 3 Zrotation Yrotation Xrotation
                          }
                        }
                      }
                    }
                  }
                }
              }
            }
          }
          JOINT RightShoulder
          {
            OFFSET 23.161716 5.296122 -1.380114
            CHANNELS 3 Zrotation Yrotation Xrotation
            JOINT RightArm
            {
              OFFSET -16.027195 -2e-06 1.1e-05
              CHANNELS 3 Zrotation Yrotation Xrotation
              JOINT RightForeArm
              {
                OFFSET -28.736639 4e-06 2e-06
                CHANNELS 3 Zrotation Yrotation Xrotation
                JOINT RightHand
                {
                  OFFSET -27.133619 6e-06 0.0
                  CHANNELS 3 Zrotation Yrotation Xrotation
                  JOINT RightHandThumb1
                  {
                    OFFSET -2.274328 -3.351035 -0.83067
                    CHANNELS 3 Zrotation Yrotation Xrotation
                    JOINT RightHandThumb2
                    {
                      OFFSET -4.703594 -3e-06 2e-06
                      CHANNELS 3 Zrotation Yrotation Xrotation
                      JOINT RightHandThumb3
                      {
                        OFFSET -2.794935 -4e-06 -3e-06
                        CHANNELS 3 Zrotation Yrotation Xrotation
                        JOINT RightHandThumbEnd
                        {
                          OFFSET -3.183852 4e-06 1e-06
                          CHANNELS 3 Zrotation Yrotation Xrotation
                        }
                      }
                    }
                  }
                  JOINT RightHandIndex1
                  {
                    OFFSET -3.253496 -2.33755 -0.127667
                    CHANNELS 3 Zrotation Yrotation Xrotation
                    JOINT RightHandIndex2
                    {
                      OFFSET -6.344434 0.0 0.0
                      CHANNELS 3 Zrotation Yrotation Xrotation
                      JOINT RightHandIndex3
                      {
                        OFFSET -3.654871 0.0 -8e-06
                        CHANNELS 3 Zrotation Yrotation Xrotation
                        JOINT RightHandIndex4
                        {
                          OFFSET -2.327586 -1e-06 0.0
                          CHANNELS 3 Zrotation Yrotation Xrotation
                          JOINT RightHandIndexEnd
                          {
                            OFFSET -2.770001 3e-06 8e-06
                            CHANNELS 3 Zrotation Yrotation Xrotation
                          }
                        }
                      }
                    }
                  }
                  JOINT RightHandMiddle1
                  {
                    OFFSET -3.168223 -0.944764 0.411762
                    CHANNELS 3 Zrotation Yrotation Xrotation
                    JOINT RightHandMiddle2
                    {
                      OFFSET -6.266691 -1e-06 -4e-06
                      CHANNELS 3 Zrotation Yrotation Xrotation
                      JOINT RightHandMiddle3
                      {
                        OFFSET -4.348901 0.0 0.0
                        CHANNELS 3 Zrotation Yrotation Xrotation
                        JOINT RightHandMiddle4
                        {
                          OFFSET -3.00024 2e-06 -4e-06
                          CHANNELS 3 Zrotation Yrotation Xrotation
                          JOINT RightHandMiddleEnd
                          {
                            OFFSET -2.321477 -4e-06 -4e-06
                            CHANNELS 3 Zrotation Yrotation Xrotation
                          }
                        }
                      }
                    }
                  }
                  JOINT RightHandRing1
                  {
                    OFFSET -2.885654 0.293261 -0.119232
                    CHANNELS 3 Zrotation Yrotation Xrotation
                    JOINT RightHandRing2
                    {
                      OFFSET -6.032835 -1e-06 -4e-06
                      CHANNELS 3 Zrotation Yrotation Xrotation
                      JOINT RightHandRing3
                      {
                        OFFSET -4.33881 0.0 -4e-06
                        CHANNELS 3 Zrotation Yrotation Xrotation
                        JOINT RightHandRing4
                        {
                          OFFSET -2.654903 -4e-06 -4e-06
                          CHANNELS 3 Zrotation Yrotation Xrotation
                          JOINT RightHandRingEnd
                          {
                            OFFSET -1.935122 0.0 4e-06
                            CHANNELS 3 Zrotation Yrotation Xrotation
                          }
                        }
                      }
                    }
                  }
                  JOINT RightHandPinky1
                  {
                    OFFSET -2.866241 1.503904 -0.60527
                    CHANNELS 3 Zrotation Yrotation Xrotation
                    JOINT RightHandPinky2
                    {
                      OFFSET -5.553177 -2e-06 0.0
                      CHANNELS 3 Zrotation Yrotation Xrotation
                      JOINT RightHandPinky3
                      {
                        OFFSET -3.062664 -1e-06 -4e-06
                        CHANNELS 3 Zrotation Yrotation Xrotation
                        JOINT RightHandPinky4
                        {
                          OFFSET -1.546529 2e-06 4e-06
                          CHANNELS 3 Zrotation Yrotation Xrotation
                          JOINT RightHandPinkyEnd
                          {
                            OFFSET -1.952341 0.0 -4e-06
                            CHANNELS 3 Zrotation Yrotation Xrotation
                          }
                        }
                      }
                    }
                  }
                }
              }
            }
          }
        }
      }
    }
    JOINT LeftLeg
    {
      OFFSET -8.443107 2.567604 10.043214
      CHANNELS 3 Zrotation Yrotation Xrotation
      JOINT LeftShin
      {
        OFFSET 43.229198 1e-06 -1e-06
        CHANNELS 3 Zrotation Yrotation Xrotation
        JOINT LeftFoot
        {
          OFFSET 42.298611 1e-06 1e-06
          CHANNELS 3 Zrotation Yrotation Xrotation
          JOINT LeftToeBase
          {
            OFFSET 14.165858 1e-06 0.0
            CHANNELS 3 Zrotation Yrotation Xrotation
            JOINT LeftToeEnd
            {
              OFFSET 6.7141 -0.234461 0.0
              CHANNELS 3 Zrotation Yrotation Xrotation
            }
          }
        }
      }
    }
    JOINT RightLeg
    {
      OFFSET -8.303923 2.592729 -10.047278
      CHANNELS 3 Zrotation Yrotation Xrotation
      JOINT RightShin
      {
        OFFSET -43.369682 0.0 1e-06
        CHANNELS 3 Zrotation Yrotation Xrotation
        JOINT RightFoot
        {
          OFFSET -42.260784 4e-06 2e-06
          CHANNELS 3 Zrotation Yrotation Xrotation
          JOINT RightToeBase
          {
            OFFSET -14.222245 -2e-06 -1e-06
            CHANNELS 3 Zrotation Yrotation Xrotation
            JOINT RightToeEnd
            {
              OFFSET -6.660062 0.232574 -2e-06
              CHANNELS 3 Zrotation Yrotation Xrotation
            }
          }
        }
      }
    }
  }
}
MOTION
Frames: 4
Frame Time: 0.03333333333333333
0.0 0.0 0.0 0.0 -0.0 0.0 0.775779 99.941673 -1.149771 91.146416 0.734069 89.257629 0.392948 -1.796196 -0.61651 -11.216556 -0.902411 -1.470553 14.971795 2.235849 -3.826405 24.239737 6.220003 2.797165 -2.595223 -1.003855 -9.112116 -32.684578 0.992463 -14.389904 6e-06 -0.0 2e-06 -0.042049 0.003479 0.061548 -0.023212 0.079232 0.065971 -0.109289 -0.063657 0.046328 -119.973488 -79.285591 141.226456 71.051498 -38.524265 -5.290432 62.053963 -0.335806 1.405167 -4.84501 -11.856206 -6.057515 17.636625 -26.322744 52.411209 -19.46666 -14.395598 29.410395 -1e-06 -8.774822 -1e-06 16.294064 -18.346893 6.033361 -0.609779 -1.795651 -3.889328 -4.807086 -11.046812 -2.93785 3e-06 -20.976019 3e-06 -5.019976 -25.03356 -4.031878 6e-06 -1e-06 -1e-06 -10.634537 -5.686969 -3.565588 10.573275 -17.922951 -3.113899 1e-06 -13.821212 3e-06 -0.50178 -31.181505 -4.027011 -11.961345 -59.279881 7.667253 -13.982717 -7.150197 -2.875041 13.772735 -8.401495 -3.218241 0.347732 -34.211559 0.771662 -0.963032 -17.733376 2.621023 -1e-06 2e-06 -0.0 -17.346422 -20.095217 -4.20178 21.757561 -1.638376 3.866426 5e-06 -6.338824 1e-06 -1.697591 -22.591745 -6.194004 -1e-06 -4e-06 -2e-06 46.590679 -77.624435 155.945297 48.865982 -45.724274 -23.205513 62.725685 -0.909585 0.219241 -11.294868 -1.293357 -27.499462 22.18211 -20.375902 49.933323 -16.701813 -16.743528 28.476534 -2e-06 -12.690601 -0.0 15.478829 -17.171629 2.971706 -0.105923 -1.513856 -4.275882 -5.039041 -5.612872 -2.953557 3e-06 -11.020525 -0.0 -6.111297 -15.895338 -3.840467 -2e-06 1e-06 -0.0 -10.283373 -5.680288 -4.341839 11.028292 -11.302406 -2.372632 -1.384269 -14.238584 -6.320122 -0.625438 -26.924196 -3.8276 -4.015031 -48.8675 -3.47567 -13.708526 -7.363478 -3.72094 18.141148 -14.05274 -3.242674 6e-06 -18.787271 -1e-06 -0.429714 -8.456048 2.555504 2e-06 2e-06 2e-06 -15.923539 -20.094486 -5.473584 30.419214 -7.190824 1.735927 2e-06 -8.16293 -1e-06 -1.861901 -22.861479 -6.167942 1e-06 -3e-06 1e-06 177.136017 -2.688992 -9.431641 13.761312 -0.143093 0.075398 -77.929497 -8.750353 -8.528136 -6.185106 1.687134 2.146448 -0.999999 -1e-06 -0.0 -3.968941 -4.881842 -10.501536 17.58947 -0.047473 0.045201 -79.921898 -13.936043 -8.941168 -6.132202 0.734566 1.689137 -1.000003 -0.0 -0.0 
0.0 0.0 0.0 0.0 -0.0 0.0 0.788719 99.955734 -1.125937 91.266144 0.903912 89.407959 0.522933 -1.879272 -0.708828 -11.24572 -0.939797 -1.797937 15.082716 2.435462 -4.178879 24.731228 7.146437 2.703398 -2.581817 -0.984388 -9.634475 -32.237759 0.738463 -14.707496 6e-06 -0.0 0.0 -0.063355 0.005205 0.098397 -0.072221 0.074217 0.10443 -0.178918 -0.053365 0.07989 -116.263046 -80.824997 137.358368 73.665573 -36.42421 -7.196341 65.564171 -0.110713 1.304976 -3.263373 -11.061728 -11.15457 17.636625 -26.322729 52.41119 -19.466656 -14.395597 29.410381 -0.0 -8.774821 -2e-06 16.324261 -18.22978 5.866484 -0.609774 -1.795655 -3.889327 -4.807087 -11.046809 -2.937851 4e-06 -20.976015 -1e-06 -5.019974 -25.03356 -4.03188 6e-06 0.0 -2e-06 -10.634529 -5.686971 -3.565586 10.573275 -17.922947 -3.1139 0.0 -13.821208 1e-06 -0.50178 -31.181501 -4.027012 -11.960205 -59.239174 7.6482 -13.982713 -7.150198 -2.875041 13.772731 -8.401491 -3.218242 0.347734 -34.211552 0.771654 -0.96303 -17.73337 2.621019 -0.0 0.0 -1e-06 -17.346413 -20.095213 -4.20178 21.757557 -1.638374 3.866426 1e-06 -6.338823 1e-06 -1.69759 -22.591743 -6.194005 2e-06 -4e-06 -3e-06 49.010471 -77.688744 153.752548 48.365383 -44.793938 -27.920305 67.107361 -0.839759 0.440797 -10.940239 1.56459 -32.009865 22.182116 -20.375891 49.933319 -16.701817 -16.74353 28.476534 -4e-06 -12.6906 1e-06 15.47174 -17.199236 3.035881 -0.105921 -1.513856 -4.275881 -5.039041 -5.612872 -2.953557 4e-06 -11.020527 -2e-06 -6.111297 -15.895334 -3.840469 -1e-06 1e-06 0.0 -10.283373 -5.680287 -4.341838 11.028296 -11.302406 -2.372634 -1.384269 -14.238583 -6.320122 -0.625434 -26.924187 -3.827601 -4.093177 -49.676704 -3.251298 -13.708525 -7.363475 -3.720939 18.141146 -14.052739 -3.242674 9e-06 -18.78727 -2e-06 -0.429712 -8.456045 2.555504 -1e-06 1e-06 0.0 -15.923534 -20.094482 -5.473585 30.41921 -7.190826 1.735923 2e-06 -8.162925 2e-06 -1.861902 -22.861471 -6.16794 0.0 -0.0 -2e-06 177.585358 -2.45544 -8.912769 13.201524 -0.123149 0.14106 -77.716965 -8.873245 -8.629296 -6.23596 1.693582 2.153481 -1.0 0.0 -0.0 -3.709393 -5.003635 -10.31273 17.519218 -0.005612 0.016352 -79.917358 -14.113811 -9.241159 -6.145755 0.727066 1.691797 -1.000003 -0.0 0.0 
0.0 0.0 0.0 0.0 -0.0 0.0 0.80664 99.937431 -1.131126 91.381775 0.983076 89.591705 0.558302 -1.93678 -0.750517 -11.284678 -1.008365 -2.137022 15.209629 2.722276 -4.527527 25.398159 8.161357 2.638209 -2.555199 -0.990454 -10.183141 -31.488039 0.542333 -15.021103 6e-06 -0.0 -2e-06 -0.06688 0.004892 0.109073 -0.100425 0.067497 0.119735 -0.221173 -0.045723 0.084063 -109.988373 -82.595535 131.040268 76.823074 -34.155399 -9.526331 68.708282 0.391454 1.200131 -1.265133 -10.609417 -17.54565 17.636641 -26.322741 52.411213 -19.466665 -14.395598 29.410393 -1e-06 -8.774822 -3e-06 16.430807 -18.219669 5.809089 -0.609777 -1.795654 -3.889328 -4.807091 -11.046811 -2.937852 5e-06 -20.976021 -0.0 -5.019971 -25.033562 -4.031882 7e-06 -1e-06 -1e-06 -10.634537 -5.686973 -3.565588 10.573277 -17.922955 -3.113901 1e-06 -13.821212 1e-06 -0.501775 -31.181511 -4.027017 -12.12545 -59.346176 7.848603 -13.982716 -7.1502 -2.875044 13.772734 -8.401493 -3.21824 0.347734 -34.211559 0.771656 -0.963028 -17.733374 2.621021 -1e-06 0.0 -0.0 -17.346422 -20.095222 -4.201784 21.757563 -1.638376 3.866431 1e-06 -6.338826 1e-06 -1.697588 -22.591749 -6.194009 -2e-06 -4e-06 -2e-06 51.560909 -77.858856 151.199707 48.221317 -43.636257 -32.943012 70.608749 -0.897349 0.533312 -10.488569 4.979431 -37.740948 22.182114 -20.375896 49.933327 -16.701813 -16.743528 28.476534 -1e-06 -12.6906 -1e-06 15.411013 -17.204281 3.208616 -0.105919 -1.513857 -4.275881 -5.039042 -5.612872 -2.953557 4e-06 -11.020526 -5e-06 -6.1113 -15.895334 -3.840471 1e-06 -0.0 1e-06 -10.28337 -5.680291 -4.34184 11.028292 -11.302406 -2.372633 -1.384269 -14.238583 -6.320124 -0.625441 -26.924194 -3.827605 -4.175293 -50.190628 -2.968211 -13.708527 -7.363479 -3.720938 18.14115 -14.052739 -3.242674 4e-06 -18.787271 -3e-06 -0.429712 -8.456044 2.555503 1e-06 1e-06 1e-06 -15.923538 -20.094492 -5.473586 30.41921 -7.190823 1.735925 2e-06 -8.162925 1e-06 -1.861905 -22.861469 -6.167943 1e-06 -1e-06 -0.0 177.649887 -2.26784 -8.509416 13.170125 -0.137112 0.158397 -77.700363 -8.959545 -8.635745 -6.178842 1.681367 2.156709 -0.999998 -1e-06 -0.0 -3.717659 -5.165483 -10.262443 17.776894 0.020698 0.009108 -80.069031 -14.156782 -9.48558 -6.110452 0.746957 1.696907 -1.000001 -1e-06 0.0 
0.0 0.0 0.0 0.0 -0.0 0.0 0.82008 99.931801 -1.142128 91.438347 1.032314 89.785011 0.578007 -1.948098 -0.798361 -11.353139 -1.067975 -2.457018 15.362031 3.102996 -4.920413 26.193872 9.154619 2.529774 -2.535425 -1.037944 -10.549798 -30.595419 0.423816 -15.281268 6e-06 0.0 -1e-06 -0.072392 0.002729 0.119115 -0.124542 0.060873 0.135726 -0.25488 -0.041585 0.085782 -97.466278 -84.258881 118.448502 80.493195 -31.755339 -12.326308 71.107094 1.016414 0.934394 1.388875 -9.996115 -25.985189 17.636635 -26.322729 52.411205 -19.466665 -14.395597 29.410398 -0.0 -8.774824 -2e-06 16.439358 -18.419033 5.932494 -0.609776 -1.795654 -3.889329 -4.807092 -11.046813 -2.937853 6e-06 -20.976019 -3e-06 -5.019967 -25.03356 -4.031886 6e-06 2e-06 -1e-06 -10.634537 -5.686971 -3.56559 10.573274 -17.922955 -3.113902 3e-06 -13.821211 -2e-06 -0.501774 -31.181505 -4.02702 -12.213021 -59.477909 8.032712 -13.982716 -7.1502 -2.875044 13.772733 -8.401495 -3.218242 0.347736 -34.211563 0.77165 -0.963028 -17.733372 2.621018 0.0 -1e-06 -0.0 -17.346422 -20.095221 -4.201786 21.757561 -1.638375 3.866431 1e-06 -6.338825 -0.0 -1.697587 -22.591749 -6.194011 0.0 -3e-06 -2e-06 54.549881 -78.179001 148.046341 48.605537 -42.418274 -38.833282 73.378204 -0.984144 0.506766 -9.835725 9.239647 -44.620033 22.182121 -20.375896 49.933323 -16.701818 -16.743534 28.476538 -3e-06 -12.690605 -4e-06 15.442561 -17.2174 3.307798 -0.105918 -1.513857 -4.275881 -5.039042 -5.612873 -2.953556 4e-06 -11.020528 -2e-06 -6.1113 -15.895334 -3.840469 1e-06 -1e-06 -1e-06 -10.283375 -5.680289 -4.34184 11.028299 -11.302407 -2.372633 -1.384268 -14.238583 -6.320124 -0.625435 -26.924192 -3.827605 -4.374108 -50.377338 -2.612219 -13.708529 -7.363475 -3.720938 18.141157 -14.052742 -3.242677 7e-06 -18.78727 -0.0 -0.429711 -8.456043 2.555503 0.0 -0.0 -1e-06 -15.923543 -20.09449 -5.473583 30.419224 -7.190829 1.735927 3e-06 -8.162929 -2e-06 -1.861902 -22.861473 -6.167942 1e-06 -2e-06 -3e-06 177.68219 -2.148339 -8.13532 13.1297 -0.157897 0.156274 -77.656631 -9.108132 -8.643096 -6.09875 1.638682 2.152663 -0.999998 -0.0 -0.0 -3.673155 -5.239019 -10.276892 17.854635 0.025663 -0.003975 -80.117386 -14.227852 -9.709715 -6.173814 0.755684 1.691786 -1.000002 1e-06 0.0 
